<svg width="76" height="78" viewBox="0 0 76 78" fill="none" xmlns="http://www.w3.org/2000/svg">
<path id="Vector 9" d="M70.947 9.22188C60.447 9.22188 49.6617 15.0443 39.5388 21.1583C32.8022 25.2269 35.0005 33.0699 24.5007 37.0699C14.001 41.0699 1.86268 26.2255 2.00072 18.5699C2.13696 11.0144 10.001 1.07031 21.5007 2.06985C32.9578 3.06568 36.3951 17.0424 44.0299 28.1555C50.1847 37.1145 43.501 41.0703 53.501 46.5703C60.1847 50.2464 66.3727 43.4653 73.0012 53.5699C75.226 56.9614 70.4455 68.1581 67.5009 71.0699C52.7758 85.6312 49.8003 61.0105 37.5009 58.0699C27.1715 55.6003 8.44703 63.5701 9.44826 77.5701" stroke="#DBB701" stroke-width="3" stroke-dasharray="5 5"/>
</svg>
