<svg width="76" height="78" viewBox="0 0 76 78" fill="none" xmlns="http://www.w3.org/2000/svg">
<path id="Vector 6" d="M5.05395 9.15157C15.5539 9.15157 26.3393 14.974 36.4622 21.088C43.1987 25.1566 41.0005 32.9996 51.5002 36.9996C62 40.9996 74.1383 26.1552 74.0003 18.4996C73.864 10.9441 66 1 54.5002 1.99954C43.0432 2.99537 39.6058 16.9721 31.9711 28.0852C25.8162 37.0442 32.5 41 22.5 46.5C15.8163 50.1761 9.62828 43.395 2.9998 53.4996C0.774969 56.8911 5.55551 68.0878 8.50004 70.9995C23.2252 85.5609 26.2007 60.9401 38.5 57.9996C48.8294 55.53 67.554 63.4997 66.5527 77.4997" stroke="#DBB701" stroke-width="3" stroke-dasharray="5 5"/>
</svg>
